<svg width="20" height="20" viewBox="0 0 20 20" fill="none" xmlns="http://www.w3.org/2000/svg">
<g clip-path="url(#clip0_880_167)">
<path d="M18.9192 0C18.6426 0 18.3659 0.105522 18.1549 0.316565L0.31654 18.1549C-0.105513 18.577 -0.105513 19.2613 0.31654 19.6834C0.738627 20.1055 1.42301 20.1055 1.8451 19.6834L19.6834 1.84509C20.1055 1.42301 20.1055 0.738653 19.6834 0.316565C19.4724 0.105522 19.1957 0 18.9192 0Z" fill="#D73949"/>
<path d="M1.08082 0C0.804236 0 0.527583 0.105522 0.31654 0.316565C-0.105513 0.738653 -0.105513 1.42301 0.31654 1.84509L18.1549 19.6834C18.577 20.1055 19.2614 20.1055 19.6834 19.6834C20.1055 19.2613 20.1055 18.577 19.6834 18.1549L1.8451 0.316565C1.63406 0.105522 1.3574 0 1.08082 0Z" fill="#D73949"/>
</g>
<defs>
<clipPath id="clip0_880_167">
<rect width="20" height="20" fill="white" transform="matrix(1 0 0 -1 0 20)"/>
</clipPath>
</defs>
</svg>
