<svg version="1.2" xmlns="http://www.w3.org/2000/svg" viewBox="0 0 60 60" width="60" height="60">
	<title>cross-17</title>
	<style>
		.s0 { fill: #fce9e6 } 
		.s1 { fill: #ffc4ca } 
		.s2 { fill: #fc3c50 } 
	</style>
	<path id="Shape 1" fill-rule="evenodd" class="s0" d="m30 57.1c-13.8 0-25-11.9-25-26.6 0-14.7 11.2-26.6 25-26.6 13.8 0 25 11.9 25 26.6 0 14.7-11.2 26.6-25 26.6z"/>
	<path class="s1" d="m30 1.9c15.5 0 28.1 12.6 28.1 28.1 0 15.5-12.6 28.1-28.1 28.1-15.5 0-28.1-12.6-28.1-28.1 0-15.5 12.6-28.1 28.1-28.1zm0 52.5c13.4 0 24.4-11 24.4-24.4 0-13.4-11-24.4-24.4-24.4-13.4 0-24.4 11-24.4 24.4 0 13.4 11 24.4 24.4 24.4z"/>
	<path id="Layer copy" class="s2" d="m42.6 17.4c0.7 0.8 0.7 1.9 0 2.7l-9.9 9.9 9.9 9.9c0.3 0.4 0.5 0.9 0.5 1.4 0 0.4-0.2 0.9-0.5 1.3q-0.2 0.1-0.3 0.2-0.2 0.1-0.3 0.2-0.2 0.1-0.4 0.1-0.2 0-0.4 0c-0.4 0-0.9-0.2-1.3-0.5l-9.9-9.9-9.9 9.9q-0.2 0.1-0.3 0.2-0.2 0.1-0.3 0.2-0.2 0.1-0.4 0.1-0.2 0-0.4 0c-0.4 0-0.9-0.2-1.3-0.5-0.7-0.7-0.7-2 0-2.7l9.9-9.9-9.9-9.9c-0.3-0.4-0.5-0.9-0.5-1.3 0-0.5 0.2-1 0.5-1.4 0.8-0.7 1.9-0.7 2.7 0l9.9 9.9 9.9-9.9c0.8-0.7 1.9-0.7 2.7 0z"/>
</svg>