<svg width="24" height="24" viewBox="0 0 24 24" fill="none" xmlns="http://www.w3.org/2000/svg">
<path d="M10.4188 15.5858L12.1606 17.129L13.5909 15.5858L12.0676 5.56299H12.0383L10.4188 15.5858Z" fill="#372F90"/>
<path d="M11.9999 3.49097C6.69796 3.49097 2.3999 7.66454 2.3999 12.8129C2.3999 15.2312 3.34826 17.4343 4.90345 19.091L6.26996 18.2398C4.95773 16.9336 4.11535 15.1803 4.00762 13.2375H5.23832V12.4766H4.00325C4.17912 8.46635 7.48421 5.24288 11.6081 5.04986V6.13126H12.3917V5.04986C16.5156 5.2429 19.8207 8.46635 19.9966 12.4766H18.758V13.2375H19.9922C19.8856 15.1591 19.0604 16.8951 17.7728 18.1967L19.0964 19.091C20.6515 17.4343 21.5999 15.2312 21.5999 12.8129C21.5999 7.66454 17.3018 3.49097 11.9999 3.49097Z" fill="#372F90"/>
</svg>
