<svg width="24" height="26" viewBox="0 0 24 26" fill="none" xmlns="http://www.w3.org/2000/svg">
<path d="M7 3L8.25 0.5H15.75L17 3H23.25V5.5H0.75V3H7ZM3.25 6.75H20.75V23C20.75 23.3283 20.6853 23.6534 20.5597 23.9567C20.4341 24.26 20.2499 24.5356 20.0178 24.7678C19.7856 24.9999 19.51 25.1841 19.2067 25.3097C18.9034 25.4353 18.5783 25.5 18.25 25.5H5.75C5.4217 25.5 5.09661 25.4353 4.79329 25.3097C4.48998 25.1841 4.21438 24.9999 3.98223 24.7678C3.75009 24.5356 3.56594 24.26 3.4403 23.9567C3.31466 23.6534 3.25 23.3283 3.25 23V6.75ZM5.75 9.25V23H18.25V9.25H5.75ZM8.25 11.75H10.75V20.5H8.25V11.75ZM13.25 11.75H15.75V20.5H13.25V11.75Z" fill="#6C5FFC"/>
</svg>
