<svg width="34" height="34" viewBox="0 0 34 34" fill="none" xmlns="http://www.w3.org/2000/svg">
<path d="M17.1576 4.61548C10.274 4.61548 4.69092 10.1963 4.69092 17.0836C4.69092 23.971 10.2711 29.5488 17.1576 29.5488C24.0441 29.5488 29.6243 23.968 29.6243 17.0807C29.6243 10.1933 24.0411 4.61548 17.1576 4.61548ZM17.1576 27.7339C11.276 27.7339 6.50565 22.9659 6.50565 17.0807C6.50565 11.1954 11.273 6.42747 17.1576 6.42747C23.0422 6.42747 27.8095 11.1969 27.8095 17.0807C27.8095 22.9645 23.0392 27.7339 17.1576 27.7339Z" fill="#372F90"/>
<path d="M19.9136 22.3337L18.9966 21.4484L18.777 21.6534C17.6986 22.66 17.2693 22.9277 17.1143 22.9989C17.1134 22.9946 17.1128 22.9903 17.1124 22.9859C17.3744 21.3064 17.7869 19.6546 18.3447 18.0511C18.6688 17.0944 18.9281 16.1163 19.1209 15.1237L19.1257 15.0992V15.0739C19.1307 14.938 19.1042 14.8028 19.0481 14.6792C18.9921 14.5556 18.9081 14.4471 18.8031 14.3625L18.7887 14.3519C18.5606 14.1905 18.2854 14.112 18.0078 14.1291C17.369 14.1752 16.7509 14.3786 16.2072 14.7218C15.3723 15.2329 14.6211 15.873 13.9807 16.619L13.7576 16.8806L14.7728 17.6579L14.9688 17.4545C15.3737 17.0357 15.8089 16.6483 16.2709 16.2956C16.3446 16.2461 16.4261 16.2099 16.5119 16.1886C16.5018 16.2783 16.4824 16.3667 16.4542 16.4524C15.6068 18.7881 15.0078 21.209 14.6673 23.6737L14.6647 23.6986C14.6439 24.0444 14.7584 24.3846 14.9835 24.6451L14.9966 24.6597C15.1062 24.7725 15.2368 24.862 15.3809 24.9231C15.525 24.9842 15.6797 25.0155 15.8358 25.0153H15.9085C16.3934 24.9722 16.8608 24.8108 17.2709 24.5449L18.1834 23.9479H18.1006C18.6555 23.5235 19.1826 23.0628 19.6784 22.5688L19.9136 22.3337ZM20.5546 10.2397C20.5415 9.93936 20.4122 9.65639 20.1946 9.45224C19.9771 9.24809 19.689 9.13924 19.3928 9.14933H19.3867C19.1907 9.14969 18.997 9.19189 18.8182 9.27317C18.6393 9.35445 18.4793 9.473 18.3485 9.62111C18.2083 9.76878 18.0981 9.94307 18.0243 10.134C17.9505 10.3249 17.9146 10.5288 17.9186 10.7338C17.9137 10.8934 17.9399 11.0525 17.9956 11.2018C18.0513 11.3512 18.1355 11.4879 18.2434 11.6043C18.3464 11.7133 18.4701 11.8002 18.607 11.8596C18.744 11.919 18.8913 11.9497 19.0402 11.95H19.0721C19.4217 11.943 19.756 11.8035 20.0092 11.559H20.0131L20.1068 11.462C20.3993 11.1596 20.5614 10.7517 20.5575 10.328V10.2429L20.5546 10.2397Z" fill="#372F90"/>
</svg>
