<svg width="32" height="32" viewBox="0 0 32 32" fill="none" xmlns="http://www.w3.org/2000/svg">
<circle cx="16.2407" cy="15.7593" r="15.7593" fill="#E3E1FF"/>
<path d="M9.0511 19.3683L9.00003 22.5645C8.99734 22.8038 9.19088 23 9.43012 23H9.44087L12.6128 22.922C12.6665 22.9194 12.7203 22.8978 12.7579 22.8602L23.9375 11.7043C24.0208 11.621 24.0208 11.4839 23.9375 11.4005L20.5963 8.06183C20.5533 8.01882 20.4995 8 20.443 8C20.3866 8 20.3328 8.02151 20.2898 8.06183L9.11293 19.2177C9.07529 19.2581 9.0511 19.3118 9.0511 19.3683ZM10.758 20.0027L20.443 10.3387L21.658 11.5511L11.9676 21.2204L10.7392 21.25L10.758 20.0027Z" fill="#6C5FFC"/>
</svg>
