<svg width="28" height="28" viewBox="0 0 28 28" fill="none" xmlns="http://www.w3.org/2000/svg">
<path d="M14.0094 7.8125C18.5361 7.8125 24.6762 12.4385 25.1029 13.7102C24.9364 15.1034 19.1576 20.1418 14.0094 20.1418C9.11224 20.1418 2.9131 16.1286 2.91251 13.6795C3.04134 12.473 8.99019 7.8125 14.0094 7.8125ZM14.0094 6.57896C8.86702 6.57896 1.68018 11.4188 1.68018 13.6689C1.68018 17.2346 8.91 21.3754 14.0094 21.3754C19.5897 21.3754 26.3389 15.9522 26.3389 13.6689C26.3389 11.769 18.9621 6.57896 14.0094 6.57896Z" fill="#E16A76"/>
<path d="M14.0092 10.8948C15.7082 10.8948 17.0917 12.2782 17.0917 13.9772C17.0917 15.6761 15.7082 17.0595 14.0092 17.0595C12.3103 17.0595 10.9269 15.6761 10.9269 13.9772C10.9269 12.2782 12.3103 10.8948 14.0092 10.8948ZM14.0092 9.66124C11.6254 9.66124 9.69336 11.5934 9.69336 13.9772C9.69336 16.361 11.6254 18.293 14.0092 18.293C16.3932 18.293 18.3252 16.361 18.3252 13.9772C18.3252 11.5934 16.3932 9.66124 14.0092 9.66124Z" fill="#E16A76"/>
</svg>
