<svg width="23" height="24" viewBox="0 0 23 24" fill="none" xmlns="http://www.w3.org/2000/svg">
<path d="M14.7547 24C14.1038 24 13.6698 23.5636 13.6698 22.9091V9.81818C13.6698 9.6 13.8868 9.16364 14.1038 8.94545L20.8302 3.27273C21.0472 3.05455 21.0472 2.61818 20.8302 2.61818C20.8302 2.4 20.6132 2.18182 20.1792 2.18182H2.82076C2.38679 2.18182 2.16981 2.4 2.16981 2.61818C2.16981 2.83636 1.95283 3.05455 2.38679 3.27273L9.11321 8.94545C9.11321 9.16364 9.33019 9.6 9.33019 9.81818V18.5455C9.33019 19.2 8.89623 19.6364 8.24528 19.6364C7.59434 19.6364 7.16038 19.2 7.16038 18.5455V10.2545L0.867925 5.01818C-6.46654e-08 4.14546 -0.216981 2.83636 0.216981 1.74545C0.433962 0.654545 1.51887 0 2.82076 0H20.1792C21.2642 0 22.3491 0.654545 22.783 1.74545C23.217 2.83636 23 4.14545 22.1321 4.8L15.6226 10.2545V22.9091C15.8396 23.5636 15.4057 24 14.7547 24Z" fill="#6C5FFC"/>
</svg>
