<svg width="18" height="18" viewBox="0 0 18 18" fill="none" xmlns="http://www.w3.org/2000/svg">
<path d="M13.6361 3.29735L9.85727 7.0661H3.32552C3.02541 7.06513 2.73503 7.17245 2.5077 7.36837C2.28037 7.56429 2.13135 7.83564 2.08802 8.1326L1.03277 14.8342C1.02008 14.9145 1.02496 14.9966 1.04706 15.0749C1.06916 15.1531 1.10795 15.2256 1.16078 15.2874C1.2136 15.3492 1.27919 15.3989 1.35303 15.4329C1.42688 15.4669 1.50721 15.4845 1.58852 15.4845L15.426 15.4474C15.5068 15.4471 15.5865 15.4295 15.6599 15.3957C15.7332 15.3618 15.7984 15.3126 15.8511 15.2514C15.9037 15.1901 15.9425 15.1182 15.9648 15.0406C15.9872 14.963 15.9926 14.8815 15.9806 14.8016L14.9873 8.14723C14.9479 7.88011 14.8204 7.6338 14.625 7.44748L16.2 5.86685C17.1641 4.71485 14.7713 2.33323 13.6361 3.29735ZM10.0361 10.4456L8.88752 10.6121L9.05289 9.46348L13.5979 4.91623C13.8318 5.32612 14.1718 5.66539 14.5823 5.89835L10.0361 10.4456ZM13.8735 8.3081L14.7735 14.328L2.25002 14.3572L3.20964 8.2946C3.21308 8.26682 3.22629 8.24116 3.24689 8.2222C3.2675 8.20325 3.29416 8.19222 3.32214 8.1911H8.73227L8.12252 8.80085C8.03692 8.88695 7.98097 8.99807 7.96277 9.1181L7.73777 10.7122H4.47527C4.32608 10.7122 4.18301 10.7715 4.07752 10.877C3.97203 10.9825 3.91277 11.1255 3.91277 11.2747C3.91277 11.4239 3.97203 11.567 4.07752 11.6725C4.18301 11.778 4.32608 11.8372 4.47527 11.8372H8.31039L10.3871 11.538C10.5074 11.5204 10.6187 11.4643 10.7044 11.3782L13.8375 8.2361C13.8544 8.25561 13.8657 8.27933 13.8701 8.30473L13.8735 8.3081Z" fill="#299CDB"/>
</svg>
