<svg width="40" height="40" viewBox="0 0 40 40" fill="none" xmlns="http://www.w3.org/2000/svg">
<circle cx="20" cy="20" r="20" fill="#F0EFFF"/>
<g clip-path="url(#clip0_1301_2)">
<path d="M20.152 20.4277C22.8031 20.4277 24.9522 18.5749 24.9522 16.2899C24.9522 14.0045 22.8031 12.1523 20.152 12.1523C17.5011 12.1523 15.3516 14.0045 15.3518 16.2899C15.3518 18.5749 17.5011 20.4277 20.1521 20.4277H20.152ZM22.3525 21.8073H18.3518C14.9273 21.8073 12.1509 24.2 12.1509 27.1515V27.4965C12.1509 28.7029 14.9273 28.704 18.3518 28.704H22.3525C25.7766 28.704 28.5529 28.6595 28.5529 27.4965V27.1516C28.5529 24.2 25.7769 21.8073 22.3525 21.8073Z" fill="#372F90"/>
</g>
<defs>
<clipPath id="clip0_1301_2">
<rect width="17" height="17" fill="white" transform="translate(12 12)"/>
</clipPath>
</defs>
</svg>
