<svg width="34" height="34" viewBox="0 0 34 34" fill="none" xmlns="http://www.w3.org/2000/svg">
<path d="M25.1117 7.38001L18.4856 13.7565H7.03235C6.50613 13.7549 5.99695 13.9365 5.59833 14.268C5.19971 14.5994 4.93841 15.0586 4.86243 15.561L3.01208 26.8998C2.98984 27.0357 2.99839 27.1746 3.03714 27.307C3.07589 27.4394 3.14392 27.5621 3.23654 27.6666C3.32916 27.7712 3.44417 27.8551 3.57365 27.9127C3.70314 27.9702 3.84401 28 3.98657 28L28.2502 27.9372C28.3919 27.9368 28.5317 27.9069 28.6603 27.8497C28.7889 27.7925 28.9033 27.7092 28.9955 27.6056C29.0878 27.5019 29.1559 27.3803 29.1951 27.249C29.2343 27.1177 29.2437 26.9798 29.2228 26.8446L27.4809 15.5857C27.4119 15.1338 27.1884 14.7171 26.8457 14.4018L29.6074 11.7275C31.298 9.77835 27.1022 5.74876 25.1117 7.38001ZM18.7992 19.4745L16.7852 19.7562L17.0751 17.8128L25.0447 10.1191C25.4548 10.8126 26.0511 11.3866 26.7707 11.7808L18.7992 19.4745ZM25.528 15.8579L27.1061 26.0433L5.14649 26.0928L6.82917 15.8351C6.8352 15.7881 6.85835 15.7447 6.89448 15.7126C6.93061 15.6805 6.97738 15.6619 7.02643 15.66H16.5129L15.4438 16.6916C15.2937 16.8373 15.1956 17.0253 15.1636 17.2284L14.7691 19.9256H9.0484C8.78681 19.9256 8.53594 20.0259 8.35096 20.2044C8.16599 20.3828 8.06208 20.6249 8.06208 20.8773C8.06208 21.1297 8.16599 21.3718 8.35096 21.5503C8.53594 21.7288 8.78681 21.829 9.0484 21.829H15.7732L19.4147 21.3227C19.6255 21.293 19.8207 21.1981 19.971 21.0524L25.4649 15.7361C25.4944 15.7691 25.5142 15.8093 25.5221 15.8522L25.528 15.8579Z" fill="#372F90"/>
</svg>
