<svg width="34" height="34" viewBox="0 0 34 34" fill="none" xmlns="http://www.w3.org/2000/svg">
<path d="M17.0003 30.97H4.7876V2.96997H26.7876V14.0667H25.0094V4.80051H6.56581V29.1394H17.0003V30.97Z" fill="#372F90"/>
<path d="M21.795 27.97C21.7206 27.97 21.6463 27.97 21.5719 27.9662C19.9688 27.9067 18.4847 27.2298 17.3949 26.0581C16.3014 24.8827 15.7323 23.3576 15.7918 21.7545C15.8513 20.1513 16.5283 18.6672 17.6999 17.5774C18.8753 16.4838 20.404 15.9147 22.0033 15.9742C23.6064 16.0337 25.0905 16.7107 26.1803 17.8824C27.2738 19.0578 27.8429 20.5828 27.7834 22.186C27.7238 23.7891 27.0469 25.2732 25.8753 26.3631C24.7557 27.4046 23.3163 27.97 21.795 27.97ZM21.7839 17.8266C20.735 17.8266 19.7382 18.2171 18.9683 18.935C18.1574 19.6901 17.6888 20.713 17.6516 21.8177C17.6106 22.9225 18.0049 23.9788 18.7562 24.7897C19.5113 25.6006 20.5341 26.0692 21.6388 26.1064C22.7435 26.1474 23.7998 25.7531 24.6107 25.0017C25.4215 24.2466 25.8902 23.2237 25.9274 22.119C25.9683 21.0143 25.574 19.9579 24.8227 19.147C24.0713 18.3362 23.0448 17.8675 21.9401 17.8303C21.888 17.8266 21.8359 17.8266 21.7839 17.8266Z" fill="#372F90"/>
<path d="M23.903 26.0925L25.2212 24.8741L29.7876 29.7516L28.4694 30.97L23.903 26.0925ZM8.7876 8.96997H17.1376V10.7587H8.7876V8.96997ZM8.7876 13.0842H17.1376V14.8729H8.7876V13.0842Z" fill="#372F90"/>
<path d="M8.7876 16.97H13.7876V18.97H8.7876V16.97Z" fill="#372F90"/>
</svg>
