<svg width="29" height="29" viewBox="0 0 29 29" fill="none" xmlns="http://www.w3.org/2000/svg">
<path d="M14.5028 25.3042H4.77759V3.64478H22.2965V12.2287H20.8805V5.06079H6.1936V23.8881H14.5028V25.3042Z" fill="#299CDB"/>
<path d="M18.2497 22.9791C18.193 22.9791 18.1364 22.9791 18.0797 22.9762C16.8591 22.9309 15.7292 22.4155 14.8994 21.5234C14.0668 20.6285 13.6335 19.4673 13.6788 18.2467C13.7241 17.0261 14.2395 15.8961 15.1316 15.0664C16.0265 14.2337 17.1905 13.8004 18.4083 13.8458C19.6289 13.8911 20.7588 14.4065 21.5886 15.2986C22.4212 16.1935 22.8545 17.3546 22.8092 18.5752C22.7639 19.7959 22.2485 20.9258 21.3564 21.7556C20.504 22.5486 19.408 22.9791 18.2497 22.9791ZM18.2412 15.2561C17.4425 15.2561 16.6835 15.5535 16.0973 16.1001C15.4799 16.675 15.1231 17.4538 15.0948 18.2949C15.0636 19.136 15.3638 19.9403 15.9359 20.5577C16.5108 21.1751 17.2896 21.5319 18.1307 21.5602C18.9718 21.5914 19.7761 21.2912 20.3935 20.7191C21.0109 20.1442 21.3677 19.3654 21.396 18.5243C21.4272 17.6832 21.127 16.8789 20.5549 16.2615C19.9829 15.6441 19.2012 15.2873 18.3601 15.2589C18.3205 15.2561 18.2808 15.2561 18.2412 15.2561Z" fill="#299CDB"/>
<path d="M20.0845 21.4274L21.1213 20.463L24.7129 24.324L23.6761 25.2885L20.0845 21.4274ZM8.1958 7.87305H14.7633V9.28906H8.1958V7.87305ZM8.1958 11.1299H14.7633V12.5459H8.1958V11.1299Z" fill="#299CDB"/>
<path d="M8.1958 14.3867H12.019V15.8027H8.1958V14.3867Z" fill="#299CDB"/>
</svg>
