<svg version="1.2" xmlns="http://www.w3.org/2000/svg" viewBox="0 0 40 40" width="40" height="40">
	<title>lead-icon</title>
	<style>
		.s0 { fill: #ffece9 } 
		.s1 { fill: #d73949 } 
	</style>
	<path id="Shape 1" fill-rule="evenodd" class="s0" d="m20 1c10.5 0 19 8.5 19 19 0 10.5-8.5 19-19 19-10.5 0-19-8.5-19-19 0-10.5 8.5-19 19-19z"/>
	<path class="s1" d="m17 13.2c0 0.7 0.3 1.4 0.8 1.9 0.5 0.5 1.2 0.8 1.9 0.8 0.7 0 1.4-0.3 1.9-0.8 0.5-0.5 0.8-1.2 0.8-1.9 0-0.7-0.3-1.4-0.8-2-0.5-0.4-1.2-0.7-1.9-0.7-0.7 0-1.4 0.3-1.9 0.7-0.5 0.6-0.8 1.3-0.8 2z"/>
	<path class="s1" d="m28.7 17.5h-18.1c-0.6 0-0.9 0.8-0.3 1.1l4.6 3.1c0.3 0.1 0.4 0.4 0.4 0.7l-1.8 6c-0.3 0.6 0.6 1.1 1.1 0.6l4.6-4.9c0.3-0.3 0.7-0.3 1 0l4.6 4.9c0.4 0.5 1.3 0 1.1-0.6l-1.8-6c0-0.3 0-0.6 0.3-0.7l4.7-3.1c0.6-0.3 0.3-1.1-0.4-1.1z"/>
</svg>