<svg width="34" height="34" viewBox="0 0 34 34" fill="none" xmlns="http://www.w3.org/2000/svg">
<path d="M13.8659 10.4763C13.0501 9.66052 12.5918 8.55408 12.5918 7.40039C12.5918 6.2467 13.0501 5.14026 13.8659 4.32448C14.6816 3.50869 15.7881 3.05039 16.9418 3.05039C18.0955 3.05039 19.2019 3.50869 20.0177 4.32448C20.8335 5.14026 21.2918 6.2467 21.2918 7.40039C21.2918 8.55408 20.8335 9.66052 20.0177 10.4763C19.2019 11.2921 18.0955 11.7504 16.9418 11.7504C15.7881 11.7504 14.6816 11.2921 13.8659 10.4763Z" stroke="#372F90" stroke-width="1.3"/>
<path d="M10.076 20.3662L10.0632 20.357L10.05 20.3486L2.75769 15.6532C2.75751 15.6531 2.75734 15.653 2.75717 15.6529C2.66394 15.5924 2.62448 15.5279 2.60679 15.4761C2.58748 15.4195 2.58607 15.3533 2.60677 15.2869C2.64644 15.1595 2.75753 15.0504 2.95408 15.0504H30.9295C31.126 15.0504 31.2371 15.1595 31.2768 15.2869C31.2975 15.3533 31.2961 15.4195 31.2768 15.4761C31.2591 15.5279 31.2196 15.5923 31.1265 15.6528C31.1263 15.6529 31.1261 15.6531 31.1259 15.6532L23.8335 20.3486L23.8203 20.357L23.8076 20.3662C23.2306 20.7783 22.9935 21.5052 23.1552 22.1518L23.1589 22.1666L23.1633 22.1813L25.9054 31.3057C25.9395 31.4613 25.8716 31.6056 25.7057 31.6953C25.5348 31.7878 25.3714 31.7617 25.2601 31.6424L25.2601 31.6424L25.2569 31.6391L18.1693 24.1517C17.5124 23.4225 16.3711 23.4225 15.7142 24.1517L8.63403 31.6312C8.49041 31.7708 8.30192 31.7827 8.14033 31.6953C8.05938 31.6515 8.0063 31.5917 7.97988 31.5355C7.95697 31.4867 7.94366 31.4207 7.97277 31.3236C7.97278 31.3235 7.97279 31.3235 7.9728 31.3235L10.7149 22.1992C10.9783 21.4605 10.5914 20.7343 10.076 20.3662Z" stroke="#372F90" stroke-width="1.3"/>
</svg>
