<svg width="29" height="29" viewBox="0 0 29 29" fill="none" xmlns="http://www.w3.org/2000/svg">
<path d="M11.1838 6.31372C11.1838 7.24198 11.5526 8.13222 12.209 8.78859C12.8653 9.44497 13.7556 9.81372 14.6838 9.81372C15.6121 9.81372 16.5023 9.44497 17.1587 8.78859C17.8151 8.13222 18.1838 7.24198 18.1838 6.31372C18.1838 5.38546 17.8151 4.49522 17.1587 3.83885C16.5023 3.18247 15.6121 2.81372 14.6838 2.81372C13.7556 2.81372 12.8653 3.18247 12.209 3.83885C11.5526 4.49522 11.1838 5.38546 11.1838 6.31372Z" fill="#01C0C8"/>
<path d="M26.3403 11.8137H3.02742C2.19482 11.8137 1.86178 12.8545 2.56949 13.3125L8.64748 17.226C8.93889 17.4341 9.10541 17.8088 8.98052 18.1419L6.69087 25.7606C6.44109 26.5933 7.52347 27.1761 8.14792 26.5517L14.0594 20.3068C14.3924 19.9321 14.9752 19.9321 15.3083 20.3068L21.2198 26.5517C21.8026 27.1761 22.885 26.5933 22.6768 25.7606L20.3872 18.1419C20.3039 17.8088 20.4288 17.4341 20.7202 17.226L26.7982 13.3125C27.5059 12.8545 27.1729 11.8137 26.3403 11.8137Z" fill="#01C0C8"/>
</svg>
