<svg version="1.2" xmlns="http://www.w3.org/2000/svg" viewBox="0 0 29 29" width="29" height="29">
	<title>lead-fill</title>
	<style>
		.s0 { fill: #ffffff } 
	</style>
	<path class="s0" d="m11.2 6.3c0 0.9 0.4 1.8 1 2.5 0.7 0.6 1.6 1 2.5 1 0.9 0 1.8-0.4 2.5-1 0.6-0.7 1-1.6 1-2.5 0-0.9-0.4-1.8-1-2.5-0.7-0.6-1.6-1-2.5-1-0.9 0-1.8 0.4-2.5 1-0.6 0.7-1 1.6-1 2.5z"/>
	<path class="s0" d="m26.3 11.8h-23.3c-0.8 0-1.1 1.1-0.4 1.5l6 3.9c0.3 0.2 0.5 0.6 0.4 0.9l-2.3 7.7c-0.3 0.8 0.8 1.4 1.4 0.8l6-6.3c0.3-0.4 0.9-0.4 1.2 0l5.9 6.3c0.6 0.6 1.7 0 1.5-0.8l-2.3-7.7c-0.1-0.3 0-0.7 0.3-0.9l6.1-3.9c0.7-0.4 0.4-1.5-0.5-1.5z"/>
</svg>