<svg version="1.2" xmlns="http://www.w3.org/2000/svg" viewBox="0 0 34 34" width="34" height="34">
	<title>logout-51</title>
	<style>
		.s0 { fill: #d73949 } 
	</style>
	<path class="s0" d="m19 21.5h-8.7c-0.4 0-0.7-0.2-0.8-0.6q0-0.1 0-0.2v-7.5q0-0.7 0.8-0.7h8.7v-0.3-6.7c0-0.3 0.2-0.5 0.4-0.6q0.5-0.2 0.8 0.2 0.2 0.1 0.4 0.3 2.4 2.4 4.8 4.8 3 3.1 6.1 6.2 0.5 0.5 0 1-4.4 4.4-8.8 8.8-1.2 1.3-2.5 2.5c-0.2 0.2-0.5 0.3-0.7 0.2q-0.5-0.2-0.5-0.7zm-5.2-16.5v2.5h-6.7c-1.4 0-2.4 1-2.4 2.4q0 7.1 0 14.2c0 1.2 0.9 2.1 1.8 2.3q0.3 0.1 0.6 0.1 3.2 0 6.4 0h0.2v2.5q0 0-0.1 0c-2.2 0-4.5 0-6.7 0-2.3 0-4.2-1.7-4.6-3.9q-0.1-0.5-0.1-0.9-0.1-7.2 0-14.4c0-2 1-3.4 2.7-4.3q0.9-0.5 2-0.5 3.3 0 6.7 0 0.1 0 0.2 0z"/>
</svg>