<svg width="22" height="18" viewBox="0 0 22 18" fill="none" xmlns="http://www.w3.org/2000/svg">
<path d="M6.58985 17.4H6.57795C6.39221 17.3982 6.20866 17.3596 6.03793 17.2864C5.86719 17.2132 5.71266 17.1069 5.58325 16.9737L0.43825 11.6537C0.309337 11.5217 0.207764 11.3657 0.139366 11.1944C0.0709679 11.0231 0.0370933 10.8399 0.0396895 10.6555C0.0422857 10.4711 0.0813013 10.289 0.154494 10.1197C0.227687 9.95035 0.333614 9.79718 0.466188 9.66894C0.598763 9.5407 0.755372 9.43992 0.927017 9.37239C1.09866 9.30487 1.28196 9.27192 1.46637 9.27546C1.65079 9.27899 1.83269 9.31893 2.00162 9.39299C2.17055 9.46704 2.32318 9.57374 2.45075 9.70697L6.60665 14.0036L19.6 1.01017C19.7292 0.876453 19.8837 0.769797 20.0545 0.696424C20.2253 0.623052 20.409 0.584432 20.5949 0.582817C20.7808 0.581201 20.9651 0.616623 21.1372 0.687017C21.3092 0.75741 21.4656 0.861364 21.597 0.992814C21.7284 1.12426 21.8324 1.28058 21.9028 1.45263C21.9732 1.62469 22.0086 1.80904 22.007 1.99493C22.0054 2.18082 21.9668 2.36453 21.8934 2.53533C21.82 2.70614 21.7134 2.86062 21.5796 2.98977L7.57965 16.9898C7.31716 17.2523 6.96112 17.3999 6.58985 17.4Z" fill="#0EC469"/>
</svg>
