<svg width="22" height="21" viewBox="0 0 22 21" fill="none" xmlns="http://www.w3.org/2000/svg">
<path d="M20.2399 15.862C19.6899 15.356 19.0519 14.85 18.5899 14.542C17.9959 14.124 17.3579 13.706 16.7639 13.442C15.8399 12.98 15.4879 12.892 15.2459 12.892C14.8279 12.892 14.4759 13.112 14.1459 13.53C13.9699 13.794 13.7719 14.168 13.6399 14.498C13.5519 14.718 13.3759 15.092 13.2659 15.224C13.0899 15.18 12.5839 14.96 11.7479 14.41C10.9779 13.86 10.1419 13.178 9.50386 12.584C8.86586 11.946 8.22786 11.11 7.67786 10.34C7.12786 9.52602 6.90786 9.02002 6.86386 8.82202C6.99586 8.73402 7.36986 8.55802 7.58986 8.44802C7.91986 8.31602 8.27186 8.18402 8.55786 7.94202C9.01986 7.61202 9.19586 7.26002 9.19586 6.84202C9.19586 6.62202 9.15186 6.24802 8.64586 5.32402C8.38186 4.77402 7.96386 4.13602 7.54586 3.49802C7.21586 3.03602 6.70986 2.39802 6.22586 1.84802C5.63186 1.25402 5.21386 0.968018 4.79586 0.968018C3.78386 0.968018 2.63986 2.44202 2.33186 2.83802C1.91386 3.38802 0.901855 4.90602 0.901855 6.27002C0.901855 7.54602 1.78186 9.24002 2.50786 10.45C3.47586 12.012 4.83986 13.75 6.31386 15.268L6.77586 15.73C8.29386 17.204 9.98786 18.568 11.5939 19.536C12.0999 19.866 12.6939 20.174 13.2879 20.46C13.3759 20.504 13.4199 20.504 13.5079 20.504C13.8379 20.504 14.1019 20.24 14.1019 19.91C14.1019 19.69 13.9699 19.448 13.7279 19.36C13.2659 19.14 12.7599 18.854 12.2099 18.524C10.6919 17.6 9.08586 16.324 7.63386 14.894L7.17186 14.432C5.74186 12.958 4.46586 11.352 3.54186 9.85602C2.61786 8.38202 2.11186 7.10602 2.11186 6.33602C2.11186 5.65402 2.52986 4.64202 3.25586 3.67402C3.58586 3.25602 3.89386 2.86002 4.22386 2.57402C4.55386 2.28802 4.72986 2.20002 4.81786 2.20002C5.03786 2.28802 5.74186 2.88202 6.68786 4.31202C7.06186 4.86202 7.41386 5.41202 7.65586 5.91802C7.98586 6.51202 8.02986 6.79802 8.02986 6.84202C8.02986 6.84202 7.94186 6.93002 7.80986 7.01802C7.63386 7.10602 7.34786 7.23802 7.12786 7.34802C6.79786 7.48002 6.53386 7.61202 6.24786 7.76602C5.82986 8.03002 5.65386 8.36002 5.65386 8.73402C5.65386 8.91002 5.65386 9.46002 6.70986 10.978C7.25986 11.792 7.98586 12.716 8.68986 13.398C9.37186 14.08 10.2959 14.828 11.1099 15.378C12.6279 16.39 13.1779 16.434 13.3539 16.434C13.7279 16.434 14.0359 16.258 14.3219 15.84C14.4979 15.62 14.5859 15.29 14.7399 14.96C14.8279 14.74 14.9599 14.454 15.0699 14.278C15.2019 14.19 15.2899 14.146 15.2899 14.146C15.3339 14.146 15.6199 14.19 16.2139 14.52C16.6759 14.784 17.2699 15.114 17.8199 15.488C19.1839 16.456 19.8439 17.138 19.9319 17.358C19.8879 17.446 19.7999 17.622 19.5579 17.952C19.2939 18.282 18.8759 18.634 18.4579 18.92C17.8199 19.382 17.1379 19.756 16.5879 19.932C16.3679 20.02 16.2139 20.262 16.2139 20.482C16.2139 20.812 16.4779 21.076 16.8079 21.076C16.8519 21.076 16.8959 21.076 16.9399 21.032C16.9839 21.032 16.9839 21.032 17.0279 20.988C17.9959 20.658 18.8099 20.108 19.2279 19.8C19.6899 19.47 21.0979 18.282 21.0979 17.314C21.0979 16.874 20.8339 16.456 20.2399 15.862Z" fill="#0EC469"/>
</svg>
