<svg version="1.2" xmlns="http://www.w3.org/2000/svg" viewBox="0 0 50 50" width="50" height="50">
	<title>profile</title>
	<style>
		.s0 { fill: #edfeff;stroke: #94c6cf;stroke-linejoin: round } 
		.s1 { fill: #59bacc } 
	</style>
	<path fill-rule="evenodd" class="s0" d="m25 49.5c-13.5 0-24.5-11-24.5-24.5 0-13.5 11-24.5 24.5-24.5 13.5 0 24.5 11 24.5 24.5 0 13.5-11 24.5-24.5 24.5z"/>
	<path class="s1" d="m36.8 37.7c-0.3-4.8-3.5-8.8-8-10.1 2.7-1.3 4.6-4 4.6-7.2 0-4.3-3.6-7.8-7.9-7.8-4.3 0-7.9 3.5-7.9 7.8 0 3.2 1.9 5.9 4.6 7.2-4.5 1.3-7.7 5.3-8 10.1 0 0.4 0.3 0.7 0.6 0.7 0.4 0 0.7-0.2 0.7-0.6 0.3-5.2 4.7-9.4 10-9.4 5.3 0 9.7 4.2 10 9.4 0 0.4 0.3 0.6 0.7 0.6 0.4 0 0.6-0.3 0.6-0.7zm-17.9-17.3c0-3.6 3-6.5 6.6-6.5 3.6 0 6.6 2.9 6.6 6.5 0 3.7-3 6.6-6.6 6.6-3.6 0-6.6-2.9-6.6-6.6z"/>
</svg>