<svg version="1.2" xmlns="http://www.w3.org/2000/svg" viewBox="0 0 24 24" width="24" height="24">
	<title>report-84</title>
	<style>
		.s0 { fill: #372f90 } 
	</style>
	<path class="s0" d="m19.5 5.3v9.7h0.8q0.1 0 0.2 0.1 0.2 0 0.3 0.1 0.1 0.1 0.1 0.3 0.1 0.1 0.1 0.3v2.5c0 1.1-1 2-2.2 2h-10.5c-1.2 0-2.3-1-2.3-2.2v-8.3h-2.3q-0.1-0.1-0.2-0.1-0.2-0.1-0.3-0.2-0.1-0.1-0.1-0.2-0.1-0.2-0.1-0.3v-3q0-0.4 0.2-0.9 0.1-0.4 0.5-0.7 0.3-0.3 0.7-0.5 0.4-0.1 0.8-0.1h12.8c0.8 0 1.5 0.6 1.5 1.5zm-13.5 2.9v-2.2q0-0.3-0.2-0.5-0.2-0.2-0.6-0.2-0.3 0-0.5 0.2-0.2 0.2-0.2 0.5v2.2q0 0.1 0.1 0.1h1.3q0.1 0 0.1-0.1zm12 6.8v-9.7h-11.3q0.2 0 0.3 0 0.2 0.1 0.3 0.2 0.1 0.1 0.1 0.2 0.1 0.2 0.1 0.3v12.1c0 0.3 0.4 0.7 0.7 0.7 0.4 0 0.8-0.4 0.8-0.7v-2.3q0-0.2 0.1-0.3 0-0.2 0.1-0.3 0.1-0.1 0.3-0.1 0.1-0.1 0.2-0.1zm0.8 3.8c0.4 0 0.7-0.4 0.7-0.9v-1.4h-9v1.3c0 0.3 0 0.5 0 0.7q-0.1 0-0.1 0-0.1 0.1-0.1 0.1 0 0.1-0.1 0.1 0 0-0.1 0.1h8.7zm-9.8-12h7.5v1.5h-7.5zm0 3h7.5v1.5h-7.5z"/>
</svg>