<svg width="34" height="34" viewBox="0 0 34 34" fill="none" xmlns="http://www.w3.org/2000/svg">
<path d="M14.928 26.7751C14.7792 26.7751 14.6304 26.7751 14.4816 26.7677C11.2755 26.6487 8.30733 25.2947 6.12773 22.9514C3.94069 20.6006 2.80254 17.5505 2.92156 14.3442C3.04058 11.1379 4.39446 8.16962 6.73772 5.98993C9.08842 3.8028 12.1458 2.66459 15.3445 2.78362C18.5507 2.90265 21.5188 4.25659 23.6984 6.59995C25.8855 8.95074 27.0236 12.0008 26.9046 15.2071C26.7856 18.4134 25.4317 21.3817 23.0884 23.5614C20.8493 25.6444 17.9705 26.7751 14.928 26.7751ZM14.9056 6.48836C12.8079 6.48836 10.8142 7.26948 9.27439 8.70525C7.65271 10.2154 6.7154 12.2612 6.64102 14.4707C6.55919 16.6801 7.34771 18.7928 8.85037 20.4146C10.3605 22.0364 12.4062 22.9737 14.6155 23.0481C16.8249 23.1299 18.9375 22.3414 20.5592 20.8386C22.1809 19.3285 23.1182 17.2827 23.1926 15.0732C23.2744 12.8638 22.4859 10.751 20.9832 9.12929C19.4806 7.50753 17.4274 6.57019 15.2181 6.4958C15.1139 6.48836 15.0098 6.48836 14.9056 6.48836Z" fill="#372F90"/>
<path d="M19.9131 22.1735L22.6012 19.7751L31.9131 29.3768L29.225 31.7751L19.9131 22.1735Z" fill="#372F90"/>
</svg>
