<svg width="24" height="24" viewBox="0 0 24 24" fill="none" xmlns="http://www.w3.org/2000/svg">
<path d="M19.7642 18.6314L16.5858 15.4728C17.6086 14.2223 18.1671 12.6732 18.1671 11.0393C18.1671 9.16021 17.4314 7.39259 16.0923 6.06186C14.7555 4.73335 12.9767 4 11.0836 4C9.19267 4 7.41393 4.73112 6.07483 6.06186C4.73797 7.39036 4 9.15798 4 11.0393C4 12.9206 4.73572 14.686 6.07483 16.0167C7.41169 17.3452 9.19043 18.0786 11.0836 18.0786C12.6784 18.0786 14.1947 17.557 15.4329 16.5963L18.6225 19.766C18.7795 19.922 18.9859 20 19.1945 20C19.4031 20 19.6072 19.922 19.7664 19.766C20.0782 19.4539 20.0782 18.9457 19.7642 18.6314ZM5.61724 11.0415C5.61724 8.0457 8.0689 5.60936 11.0836 5.60936C14.0982 5.60936 16.5499 8.0457 16.5499 11.0415C16.5499 14.0373 14.0982 16.4737 11.0836 16.4737C8.0689 16.4737 5.61724 14.0373 5.61724 11.0415Z" fill="#372F90"/>
</svg>
