<svg width="50" height="50" viewBox="0 0 50 50" fill="none" xmlns="http://www.w3.org/2000/svg">
<path d="M38.8524 19.3182C38.2253 16.1048 36.5005 13.2094 33.9734 11.1279C31.4463 9.04632 28.2742 7.90808 25.0002 7.90808C21.7262 7.90808 18.554 9.04632 16.027 11.1279C13.4999 13.2094 11.7751 16.1048 11.1479 19.3182C8.58616 19.4372 6.17662 20.569 4.44937 22.4646C2.72212 24.3602 1.81863 26.8644 1.93768 29.4261C2.05673 31.9879 3.18855 34.3974 5.08416 36.1246C6.97977 37.8519 9.48388 38.7554 12.0456 38.6363H13.557C13.8584 38.6363 14.1474 38.5166 14.3605 38.3035C14.5736 38.0904 14.6934 37.8014 14.6934 37.5C14.6934 37.1986 14.5736 36.9095 14.3605 36.6964C14.1474 36.4833 13.8584 36.3636 13.557 36.3636H12.0456C11.0756 36.3711 10.1137 36.1874 9.21467 35.8231C8.31566 35.4588 7.49721 34.921 6.80604 34.2404C6.11488 33.5598 5.56454 32.7497 5.18645 31.8564C4.80836 30.9631 4.60991 30.0041 4.60245 29.0341C4.59499 28.0641 4.77866 27.1021 5.14296 26.2031C5.50727 25.3041 6.04508 24.4856 6.72569 23.7945C7.4063 23.1033 8.21638 22.553 9.10968 22.1749C10.003 21.7968 10.962 21.5983 11.932 21.5909L13.0684 21.8522L13.2161 20.6022C13.5729 17.7405 14.9629 15.1077 17.1246 13.1988C19.2863 11.2899 22.0708 10.2364 24.9547 10.2364C27.8386 10.2364 30.6232 11.2899 32.7849 13.1988C34.9466 15.1077 36.3365 17.7405 36.6934 20.6022L36.9206 21.8295L38.057 21.5909C39.027 21.5983 39.986 21.7968 40.8793 22.1749C41.7726 22.553 42.5827 23.1033 43.2633 23.7945C43.9439 24.4856 44.4817 25.3041 44.846 26.2031C45.2103 27.1021 45.394 28.0641 45.3865 29.0341C45.3791 30.0041 45.1806 30.9631 44.8025 31.8564C44.4245 32.7497 43.8741 33.5598 43.1829 34.2404C42.4918 34.921 41.6733 35.4588 40.7743 35.8231C39.8753 36.1874 38.9133 36.3711 37.9434 36.3636H36.2388C35.9374 36.3636 35.6484 36.4833 35.4353 36.6964C35.2222 36.9095 35.1024 37.1986 35.1024 37.5C35.1024 37.8014 35.2222 38.0904 35.4353 38.3035C35.6484 38.5166 35.9374 38.6363 36.2388 38.6363H37.9547C40.5165 38.7554 43.0206 37.8519 44.9162 36.1246C46.8118 34.3974 47.9436 31.9879 48.0627 29.4261C48.1817 26.8644 47.2782 24.3602 45.551 22.4646C43.8237 20.569 41.4142 19.4372 38.8524 19.3182Z" fill="#6C5FFC"/>
<path d="M25.8067 23.4545C25.7011 23.348 25.5754 23.2635 25.4369 23.2058C25.2985 23.1481 25.1499 23.1184 24.9999 23.1184C24.8499 23.1184 24.7014 23.1481 24.5629 23.2058C24.4244 23.2635 24.2988 23.348 24.1931 23.4545L17.7727 29.875C17.6661 29.9806 17.5816 30.1063 17.5239 30.2448C17.4662 30.3833 17.4365 30.5318 17.4365 30.6818C17.4365 30.8318 17.4662 30.9804 17.5239 31.1188C17.5816 31.2573 17.6661 31.383 17.7727 31.4886C17.9856 31.7003 18.2736 31.8191 18.5738 31.8191C18.874 31.8191 19.162 31.7003 19.3749 31.4886L23.8636 27V40.9091C23.8636 41.2105 23.9833 41.4995 24.1964 41.7126C24.4095 41.9257 24.6985 42.0455 24.9999 42.0455C25.3013 42.0455 25.5904 41.9257 25.8035 41.7126C26.0166 41.4995 26.1363 41.2105 26.1363 40.9091V27L30.6817 31.4886C30.7879 31.594 30.9139 31.6773 31.0523 31.7338C31.1908 31.7904 31.339 31.819 31.4886 31.8182C31.7133 31.8172 31.9327 31.7497 32.1191 31.624C32.3054 31.4984 32.4503 31.3203 32.5355 31.1123C32.6206 30.9043 32.6422 30.6758 32.5974 30.4555C32.5527 30.2353 32.4436 30.0333 32.284 29.875L25.8067 23.4545Z" fill="#6C5FFC"/>
</svg>
